%TF.GenerationSoftware,KiCad,Pcbnew,9.0.6*%
%TF.CreationDate,2026-05-09T11:49:50+05:00*%
%TF.ProjectId,AI_Project_PCB,41495f50-726f-46a6-9563-745f5043422e,rev?*%
%TF.SameCoordinates,Original*%
%TF.FileFunction,Soldermask,Bot*%
%TF.FilePolarity,Negative*%
%FSLAX46Y46*%
G04 Gerber Fmt 4.6, Leading zero omitted, Abs format (unit mm)*
G04 Created by KiCad (PCBNEW 9.0.6) date 2026-05-09 11:49:50*
%MOMM*%
%LPD*%
G01*
G04 APERTURE LIST*
G04 Aperture macros list*
%AMRoundRect*
0 Rectangle with rounded corners*
0 $1 Rounding radius*
0 $2 $3 $4 $5 $6 $7 $8 $9 X,Y pos of 4 corners*
0 Add a 4 corners polygon primitive as box body*
4,1,4,$2,$3,$4,$5,$6,$7,$8,$9,$2,$3,0*
0 Add four circle primitives for the rounded corners*
1,1,$1+$1,$2,$3*
1,1,$1+$1,$4,$5*
1,1,$1+$1,$6,$7*
1,1,$1+$1,$8,$9*
0 Add four rect primitives between the rounded corners*
20,1,$1+$1,$2,$3,$4,$5,0*
20,1,$1+$1,$4,$5,$6,$7,0*
20,1,$1+$1,$6,$7,$8,$9,0*
20,1,$1+$1,$8,$9,$2,$3,0*%
G04 Aperture macros list end*
%ADD10C,3.200000*%
%ADD11R,1.500000X1.500000*%
%ADD12C,1.500000*%
%ADD13C,1.400000*%
%ADD14C,1.600000*%
%ADD15R,1.700000X1.700000*%
%ADD16C,1.700000*%
%ADD17RoundRect,0.250000X1.050000X-1.050000X1.050000X1.050000X-1.050000X1.050000X-1.050000X-1.050000X0*%
%ADD18C,2.600000*%
%ADD19C,1.100000*%
%ADD20R,2.030000X1.730000*%
%ADD21O,2.030000X1.730000*%
%ADD22RoundRect,0.250001X-0.949999X-0.949999X0.949999X-0.949999X0.949999X0.949999X-0.949999X0.949999X0*%
%ADD23C,2.400000*%
G04 APERTURE END LIST*
D10*
%TO.C,REF\u002A\u002A*%
X98500000Y-126000000D03*
%TD*%
%TO.C,REF\u002A\u002A*%
X179250000Y-126250000D03*
%TD*%
%TO.C,REF\u002A\u002A*%
X98750000Y-45750000D03*
%TD*%
%TO.C,REF\u002A\u002A*%
X179500000Y-46000000D03*
%TD*%
D11*
%TO.C,Q1*%
X144000000Y-91750000D03*
D12*
X141460000Y-91750000D03*
X138920000Y-91750000D03*
%TD*%
D13*
%TO.C,R3*%
X143250000Y-100250000D03*
X143250000Y-98350000D03*
%TD*%
D14*
%TO.C,R2*%
X128650000Y-56000000D03*
X136250000Y-56000000D03*
%TD*%
D13*
%TO.C,R1*%
X141750000Y-65750000D03*
X141750000Y-63850000D03*
%TD*%
D15*
%TO.C,J8*%
X148710000Y-54250000D03*
D16*
X151250000Y-54250000D03*
X153790000Y-54250000D03*
%TD*%
D17*
%TO.C,J7*%
X166000000Y-114500000D03*
D18*
X166000000Y-109420000D03*
%TD*%
D17*
%TO.C,J6*%
X167000000Y-60750000D03*
D18*
X167000000Y-55670000D03*
%TD*%
D15*
%TO.C,J4*%
X164210000Y-80170000D03*
D16*
X166750000Y-80170000D03*
X169290000Y-80170000D03*
%TD*%
D19*
%TO.C,J3*%
X111910000Y-58830000D03*
D20*
X109750000Y-53750000D03*
D21*
X109750000Y-56290000D03*
X109750000Y-58830000D03*
X109750000Y-61370000D03*
%TD*%
D15*
%TO.C,J2*%
X133250000Y-72470000D03*
D16*
X133250000Y-75010000D03*
X133250000Y-77550000D03*
X133250000Y-80090000D03*
X133250000Y-82630000D03*
X133250000Y-85170000D03*
X133250000Y-87710000D03*
X133250000Y-90250000D03*
X133250000Y-92790000D03*
X133250000Y-95330000D03*
X133250000Y-97870000D03*
X133250000Y-100410000D03*
X133250000Y-102950000D03*
X133250000Y-105490000D03*
X133250000Y-108030000D03*
X133250000Y-110570000D03*
X133250000Y-113110000D03*
X133250000Y-115650000D03*
X133250000Y-118190000D03*
%TD*%
D15*
%TO.C,J1*%
X104750000Y-72640000D03*
D16*
X104750000Y-75180000D03*
X104750000Y-77720000D03*
X104750000Y-80260000D03*
X104750000Y-82800000D03*
X104750000Y-85340000D03*
X104750000Y-87880000D03*
X104750000Y-90420000D03*
X104750000Y-92960000D03*
X104750000Y-95500000D03*
X104750000Y-98040000D03*
X104750000Y-100580000D03*
X104750000Y-103120000D03*
X104750000Y-105660000D03*
X104750000Y-108200000D03*
X104750000Y-110740000D03*
X104750000Y-113280000D03*
X104750000Y-115820000D03*
X104750000Y-118360000D03*
%TD*%
D22*
%TO.C,J5*%
X163750000Y-93170000D03*
D23*
X168830000Y-93170000D03*
%TD*%
M02*
