%TF.GenerationSoftware,KiCad,Pcbnew,9.0.6*%
%TF.CreationDate,2026-05-09T11:49:49+05:00*%
%TF.ProjectId,AI_Project_PCB,41495f50-726f-46a6-9563-745f5043422e,rev?*%
%TF.SameCoordinates,Original*%
%TF.FileFunction,Legend,Top*%
%TF.FilePolarity,Positive*%
%FSLAX46Y46*%
G04 Gerber Fmt 4.6, Leading zero omitted, Abs format (unit mm)*
G04 Created by KiCad (PCBNEW 9.0.6) date 2026-05-09 11:49:49*
%MOMM*%
%LPD*%
G01*
G04 APERTURE LIST*
%ADD10C,0.150000*%
%ADD11C,0.120000*%
G04 APERTURE END LIST*
D10*
X97166666Y-122304819D02*
X96833333Y-121828628D01*
X96595238Y-122304819D02*
X96595238Y-121304819D01*
X96595238Y-121304819D02*
X96976190Y-121304819D01*
X96976190Y-121304819D02*
X97071428Y-121352438D01*
X97071428Y-121352438D02*
X97119047Y-121400057D01*
X97119047Y-121400057D02*
X97166666Y-121495295D01*
X97166666Y-121495295D02*
X97166666Y-121638152D01*
X97166666Y-121638152D02*
X97119047Y-121733390D01*
X97119047Y-121733390D02*
X97071428Y-121781009D01*
X97071428Y-121781009D02*
X96976190Y-121828628D01*
X96976190Y-121828628D02*
X96595238Y-121828628D01*
X97595238Y-121781009D02*
X97928571Y-121781009D01*
X98071428Y-122304819D02*
X97595238Y-122304819D01*
X97595238Y-122304819D02*
X97595238Y-121304819D01*
X97595238Y-121304819D02*
X98071428Y-121304819D01*
X98833333Y-121781009D02*
X98500000Y-121781009D01*
X98500000Y-122304819D02*
X98500000Y-121304819D01*
X98500000Y-121304819D02*
X98976190Y-121304819D01*
X99500000Y-121304819D02*
X99500000Y-121542914D01*
X99261905Y-121447676D02*
X99500000Y-121542914D01*
X99500000Y-121542914D02*
X99738095Y-121447676D01*
X99357143Y-121733390D02*
X99500000Y-121542914D01*
X99500000Y-121542914D02*
X99642857Y-121733390D01*
X100261905Y-121304819D02*
X100261905Y-121542914D01*
X100023810Y-121447676D02*
X100261905Y-121542914D01*
X100261905Y-121542914D02*
X100500000Y-121447676D01*
X100119048Y-121733390D02*
X100261905Y-121542914D01*
X100261905Y-121542914D02*
X100404762Y-121733390D01*
X177916666Y-122554819D02*
X177583333Y-122078628D01*
X177345238Y-122554819D02*
X177345238Y-121554819D01*
X177345238Y-121554819D02*
X177726190Y-121554819D01*
X177726190Y-121554819D02*
X177821428Y-121602438D01*
X177821428Y-121602438D02*
X177869047Y-121650057D01*
X177869047Y-121650057D02*
X177916666Y-121745295D01*
X177916666Y-121745295D02*
X177916666Y-121888152D01*
X177916666Y-121888152D02*
X177869047Y-121983390D01*
X177869047Y-121983390D02*
X177821428Y-122031009D01*
X177821428Y-122031009D02*
X177726190Y-122078628D01*
X177726190Y-122078628D02*
X177345238Y-122078628D01*
X178345238Y-122031009D02*
X178678571Y-122031009D01*
X178821428Y-122554819D02*
X178345238Y-122554819D01*
X178345238Y-122554819D02*
X178345238Y-121554819D01*
X178345238Y-121554819D02*
X178821428Y-121554819D01*
X179583333Y-122031009D02*
X179250000Y-122031009D01*
X179250000Y-122554819D02*
X179250000Y-121554819D01*
X179250000Y-121554819D02*
X179726190Y-121554819D01*
X180250000Y-121554819D02*
X180250000Y-121792914D01*
X180011905Y-121697676D02*
X180250000Y-121792914D01*
X180250000Y-121792914D02*
X180488095Y-121697676D01*
X180107143Y-121983390D02*
X180250000Y-121792914D01*
X180250000Y-121792914D02*
X180392857Y-121983390D01*
X181011905Y-121554819D02*
X181011905Y-121792914D01*
X180773810Y-121697676D02*
X181011905Y-121792914D01*
X181011905Y-121792914D02*
X181250000Y-121697676D01*
X180869048Y-121983390D02*
X181011905Y-121792914D01*
X181011905Y-121792914D02*
X181154762Y-121983390D01*
X97416666Y-42054819D02*
X97083333Y-41578628D01*
X96845238Y-42054819D02*
X96845238Y-41054819D01*
X96845238Y-41054819D02*
X97226190Y-41054819D01*
X97226190Y-41054819D02*
X97321428Y-41102438D01*
X97321428Y-41102438D02*
X97369047Y-41150057D01*
X97369047Y-41150057D02*
X97416666Y-41245295D01*
X97416666Y-41245295D02*
X97416666Y-41388152D01*
X97416666Y-41388152D02*
X97369047Y-41483390D01*
X97369047Y-41483390D02*
X97321428Y-41531009D01*
X97321428Y-41531009D02*
X97226190Y-41578628D01*
X97226190Y-41578628D02*
X96845238Y-41578628D01*
X97845238Y-41531009D02*
X98178571Y-41531009D01*
X98321428Y-42054819D02*
X97845238Y-42054819D01*
X97845238Y-42054819D02*
X97845238Y-41054819D01*
X97845238Y-41054819D02*
X98321428Y-41054819D01*
X99083333Y-41531009D02*
X98750000Y-41531009D01*
X98750000Y-42054819D02*
X98750000Y-41054819D01*
X98750000Y-41054819D02*
X99226190Y-41054819D01*
X99750000Y-41054819D02*
X99750000Y-41292914D01*
X99511905Y-41197676D02*
X99750000Y-41292914D01*
X99750000Y-41292914D02*
X99988095Y-41197676D01*
X99607143Y-41483390D02*
X99750000Y-41292914D01*
X99750000Y-41292914D02*
X99892857Y-41483390D01*
X100511905Y-41054819D02*
X100511905Y-41292914D01*
X100273810Y-41197676D02*
X100511905Y-41292914D01*
X100511905Y-41292914D02*
X100750000Y-41197676D01*
X100369048Y-41483390D02*
X100511905Y-41292914D01*
X100511905Y-41292914D02*
X100654762Y-41483390D01*
X178166666Y-42304819D02*
X177833333Y-41828628D01*
X177595238Y-42304819D02*
X177595238Y-41304819D01*
X177595238Y-41304819D02*
X177976190Y-41304819D01*
X177976190Y-41304819D02*
X178071428Y-41352438D01*
X178071428Y-41352438D02*
X178119047Y-41400057D01*
X178119047Y-41400057D02*
X178166666Y-41495295D01*
X178166666Y-41495295D02*
X178166666Y-41638152D01*
X178166666Y-41638152D02*
X178119047Y-41733390D01*
X178119047Y-41733390D02*
X178071428Y-41781009D01*
X178071428Y-41781009D02*
X177976190Y-41828628D01*
X177976190Y-41828628D02*
X177595238Y-41828628D01*
X178595238Y-41781009D02*
X178928571Y-41781009D01*
X179071428Y-42304819D02*
X178595238Y-42304819D01*
X178595238Y-42304819D02*
X178595238Y-41304819D01*
X178595238Y-41304819D02*
X179071428Y-41304819D01*
X179833333Y-41781009D02*
X179500000Y-41781009D01*
X179500000Y-42304819D02*
X179500000Y-41304819D01*
X179500000Y-41304819D02*
X179976190Y-41304819D01*
X180500000Y-41304819D02*
X180500000Y-41542914D01*
X180261905Y-41447676D02*
X180500000Y-41542914D01*
X180500000Y-41542914D02*
X180738095Y-41447676D01*
X180357143Y-41733390D02*
X180500000Y-41542914D01*
X180500000Y-41542914D02*
X180642857Y-41733390D01*
X181261905Y-41304819D02*
X181261905Y-41542914D01*
X181023810Y-41447676D02*
X181261905Y-41542914D01*
X181261905Y-41542914D02*
X181500000Y-41447676D01*
X181119048Y-41733390D02*
X181261905Y-41542914D01*
X181261905Y-41542914D02*
X181404762Y-41733390D01*
X141784819Y-99466666D02*
X141308628Y-99799999D01*
X141784819Y-100038094D02*
X140784819Y-100038094D01*
X140784819Y-100038094D02*
X140784819Y-99657142D01*
X140784819Y-99657142D02*
X140832438Y-99561904D01*
X140832438Y-99561904D02*
X140880057Y-99514285D01*
X140880057Y-99514285D02*
X140975295Y-99466666D01*
X140975295Y-99466666D02*
X141118152Y-99466666D01*
X141118152Y-99466666D02*
X141213390Y-99514285D01*
X141213390Y-99514285D02*
X141261009Y-99561904D01*
X141261009Y-99561904D02*
X141308628Y-99657142D01*
X141308628Y-99657142D02*
X141308628Y-100038094D01*
X140784819Y-99133332D02*
X140784819Y-98514285D01*
X140784819Y-98514285D02*
X141165771Y-98847618D01*
X141165771Y-98847618D02*
X141165771Y-98704761D01*
X141165771Y-98704761D02*
X141213390Y-98609523D01*
X141213390Y-98609523D02*
X141261009Y-98561904D01*
X141261009Y-98561904D02*
X141356247Y-98514285D01*
X141356247Y-98514285D02*
X141594342Y-98514285D01*
X141594342Y-98514285D02*
X141689580Y-98561904D01*
X141689580Y-98561904D02*
X141737200Y-98609523D01*
X141737200Y-98609523D02*
X141784819Y-98704761D01*
X141784819Y-98704761D02*
X141784819Y-98990475D01*
X141784819Y-98990475D02*
X141737200Y-99085713D01*
X141737200Y-99085713D02*
X141689580Y-99133332D01*
X132283333Y-51254819D02*
X131950000Y-50778628D01*
X131711905Y-51254819D02*
X131711905Y-50254819D01*
X131711905Y-50254819D02*
X132092857Y-50254819D01*
X132092857Y-50254819D02*
X132188095Y-50302438D01*
X132188095Y-50302438D02*
X132235714Y-50350057D01*
X132235714Y-50350057D02*
X132283333Y-50445295D01*
X132283333Y-50445295D02*
X132283333Y-50588152D01*
X132283333Y-50588152D02*
X132235714Y-50683390D01*
X132235714Y-50683390D02*
X132188095Y-50731009D01*
X132188095Y-50731009D02*
X132092857Y-50778628D01*
X132092857Y-50778628D02*
X131711905Y-50778628D01*
X132664286Y-50350057D02*
X132711905Y-50302438D01*
X132711905Y-50302438D02*
X132807143Y-50254819D01*
X132807143Y-50254819D02*
X133045238Y-50254819D01*
X133045238Y-50254819D02*
X133140476Y-50302438D01*
X133140476Y-50302438D02*
X133188095Y-50350057D01*
X133188095Y-50350057D02*
X133235714Y-50445295D01*
X133235714Y-50445295D02*
X133235714Y-50540533D01*
X133235714Y-50540533D02*
X133188095Y-50683390D01*
X133188095Y-50683390D02*
X132616667Y-51254819D01*
X132616667Y-51254819D02*
X133235714Y-51254819D01*
X140284819Y-64966666D02*
X139808628Y-65299999D01*
X140284819Y-65538094D02*
X139284819Y-65538094D01*
X139284819Y-65538094D02*
X139284819Y-65157142D01*
X139284819Y-65157142D02*
X139332438Y-65061904D01*
X139332438Y-65061904D02*
X139380057Y-65014285D01*
X139380057Y-65014285D02*
X139475295Y-64966666D01*
X139475295Y-64966666D02*
X139618152Y-64966666D01*
X139618152Y-64966666D02*
X139713390Y-65014285D01*
X139713390Y-65014285D02*
X139761009Y-65061904D01*
X139761009Y-65061904D02*
X139808628Y-65157142D01*
X139808628Y-65157142D02*
X139808628Y-65538094D01*
X140284819Y-64014285D02*
X140284819Y-64585713D01*
X140284819Y-64299999D02*
X139284819Y-64299999D01*
X139284819Y-64299999D02*
X139427676Y-64395237D01*
X139427676Y-64395237D02*
X139522914Y-64490475D01*
X139522914Y-64490475D02*
X139570533Y-64585713D01*
X145784819Y-54583333D02*
X146499104Y-54583333D01*
X146499104Y-54583333D02*
X146641961Y-54630952D01*
X146641961Y-54630952D02*
X146737200Y-54726190D01*
X146737200Y-54726190D02*
X146784819Y-54869047D01*
X146784819Y-54869047D02*
X146784819Y-54964285D01*
X146213390Y-53964285D02*
X146165771Y-54059523D01*
X146165771Y-54059523D02*
X146118152Y-54107142D01*
X146118152Y-54107142D02*
X146022914Y-54154761D01*
X146022914Y-54154761D02*
X145975295Y-54154761D01*
X145975295Y-54154761D02*
X145880057Y-54107142D01*
X145880057Y-54107142D02*
X145832438Y-54059523D01*
X145832438Y-54059523D02*
X145784819Y-53964285D01*
X145784819Y-53964285D02*
X145784819Y-53773809D01*
X145784819Y-53773809D02*
X145832438Y-53678571D01*
X145832438Y-53678571D02*
X145880057Y-53630952D01*
X145880057Y-53630952D02*
X145975295Y-53583333D01*
X145975295Y-53583333D02*
X146022914Y-53583333D01*
X146022914Y-53583333D02*
X146118152Y-53630952D01*
X146118152Y-53630952D02*
X146165771Y-53678571D01*
X146165771Y-53678571D02*
X146213390Y-53773809D01*
X146213390Y-53773809D02*
X146213390Y-53964285D01*
X146213390Y-53964285D02*
X146261009Y-54059523D01*
X146261009Y-54059523D02*
X146308628Y-54107142D01*
X146308628Y-54107142D02*
X146403866Y-54154761D01*
X146403866Y-54154761D02*
X146594342Y-54154761D01*
X146594342Y-54154761D02*
X146689580Y-54107142D01*
X146689580Y-54107142D02*
X146737200Y-54059523D01*
X146737200Y-54059523D02*
X146784819Y-53964285D01*
X146784819Y-53964285D02*
X146784819Y-53773809D01*
X146784819Y-53773809D02*
X146737200Y-53678571D01*
X146737200Y-53678571D02*
X146689580Y-53630952D01*
X146689580Y-53630952D02*
X146594342Y-53583333D01*
X146594342Y-53583333D02*
X146403866Y-53583333D01*
X146403866Y-53583333D02*
X146308628Y-53630952D01*
X146308628Y-53630952D02*
X146261009Y-53678571D01*
X146261009Y-53678571D02*
X146213390Y-53773809D01*
X159134819Y-112293333D02*
X159849104Y-112293333D01*
X159849104Y-112293333D02*
X159991961Y-112340952D01*
X159991961Y-112340952D02*
X160087200Y-112436190D01*
X160087200Y-112436190D02*
X160134819Y-112579047D01*
X160134819Y-112579047D02*
X160134819Y-112674285D01*
X159134819Y-111912380D02*
X159134819Y-111245714D01*
X159134819Y-111245714D02*
X160134819Y-111674285D01*
X160134819Y-58543333D02*
X160849104Y-58543333D01*
X160849104Y-58543333D02*
X160991961Y-58590952D01*
X160991961Y-58590952D02*
X161087200Y-58686190D01*
X161087200Y-58686190D02*
X161134819Y-58829047D01*
X161134819Y-58829047D02*
X161134819Y-58924285D01*
X160134819Y-57638571D02*
X160134819Y-57829047D01*
X160134819Y-57829047D02*
X160182438Y-57924285D01*
X160182438Y-57924285D02*
X160230057Y-57971904D01*
X160230057Y-57971904D02*
X160372914Y-58067142D01*
X160372914Y-58067142D02*
X160563390Y-58114761D01*
X160563390Y-58114761D02*
X160944342Y-58114761D01*
X160944342Y-58114761D02*
X161039580Y-58067142D01*
X161039580Y-58067142D02*
X161087200Y-58019523D01*
X161087200Y-58019523D02*
X161134819Y-57924285D01*
X161134819Y-57924285D02*
X161134819Y-57733809D01*
X161134819Y-57733809D02*
X161087200Y-57638571D01*
X161087200Y-57638571D02*
X161039580Y-57590952D01*
X161039580Y-57590952D02*
X160944342Y-57543333D01*
X160944342Y-57543333D02*
X160706247Y-57543333D01*
X160706247Y-57543333D02*
X160611009Y-57590952D01*
X160611009Y-57590952D02*
X160563390Y-57638571D01*
X160563390Y-57638571D02*
X160515771Y-57733809D01*
X160515771Y-57733809D02*
X160515771Y-57924285D01*
X160515771Y-57924285D02*
X160563390Y-58019523D01*
X160563390Y-58019523D02*
X160611009Y-58067142D01*
X160611009Y-58067142D02*
X160706247Y-58114761D01*
X161394819Y-76118333D02*
X162109104Y-76118333D01*
X162109104Y-76118333D02*
X162251961Y-76165952D01*
X162251961Y-76165952D02*
X162347200Y-76261190D01*
X162347200Y-76261190D02*
X162394819Y-76404047D01*
X162394819Y-76404047D02*
X162394819Y-76499285D01*
X161728152Y-75213571D02*
X162394819Y-75213571D01*
X161347200Y-75451666D02*
X162061485Y-75689761D01*
X162061485Y-75689761D02*
X162061485Y-75070714D01*
X112754819Y-58083333D02*
X113469104Y-58083333D01*
X113469104Y-58083333D02*
X113611961Y-58130952D01*
X113611961Y-58130952D02*
X113707200Y-58226190D01*
X113707200Y-58226190D02*
X113754819Y-58369047D01*
X113754819Y-58369047D02*
X113754819Y-58464285D01*
X112754819Y-57702380D02*
X112754819Y-57083333D01*
X112754819Y-57083333D02*
X113135771Y-57416666D01*
X113135771Y-57416666D02*
X113135771Y-57273809D01*
X113135771Y-57273809D02*
X113183390Y-57178571D01*
X113183390Y-57178571D02*
X113231009Y-57130952D01*
X113231009Y-57130952D02*
X113326247Y-57083333D01*
X113326247Y-57083333D02*
X113564342Y-57083333D01*
X113564342Y-57083333D02*
X113659580Y-57130952D01*
X113659580Y-57130952D02*
X113707200Y-57178571D01*
X113707200Y-57178571D02*
X113754819Y-57273809D01*
X113754819Y-57273809D02*
X113754819Y-57559523D01*
X113754819Y-57559523D02*
X113707200Y-57654761D01*
X113707200Y-57654761D02*
X113659580Y-57702380D01*
X132916666Y-69154819D02*
X132916666Y-69869104D01*
X132916666Y-69869104D02*
X132869047Y-70011961D01*
X132869047Y-70011961D02*
X132773809Y-70107200D01*
X132773809Y-70107200D02*
X132630952Y-70154819D01*
X132630952Y-70154819D02*
X132535714Y-70154819D01*
X133345238Y-69250057D02*
X133392857Y-69202438D01*
X133392857Y-69202438D02*
X133488095Y-69154819D01*
X133488095Y-69154819D02*
X133726190Y-69154819D01*
X133726190Y-69154819D02*
X133821428Y-69202438D01*
X133821428Y-69202438D02*
X133869047Y-69250057D01*
X133869047Y-69250057D02*
X133916666Y-69345295D01*
X133916666Y-69345295D02*
X133916666Y-69440533D01*
X133916666Y-69440533D02*
X133869047Y-69583390D01*
X133869047Y-69583390D02*
X133297619Y-70154819D01*
X133297619Y-70154819D02*
X133916666Y-70154819D01*
X104416666Y-69324819D02*
X104416666Y-70039104D01*
X104416666Y-70039104D02*
X104369047Y-70181961D01*
X104369047Y-70181961D02*
X104273809Y-70277200D01*
X104273809Y-70277200D02*
X104130952Y-70324819D01*
X104130952Y-70324819D02*
X104035714Y-70324819D01*
X105416666Y-70324819D02*
X104845238Y-70324819D01*
X105130952Y-70324819D02*
X105130952Y-69324819D01*
X105130952Y-69324819D02*
X105035714Y-69467676D01*
X105035714Y-69467676D02*
X104940476Y-69562914D01*
X104940476Y-69562914D02*
X104845238Y-69610533D01*
D11*
%TO.C,R3*%
X144070000Y-99832867D02*
G75*
G02*
X142430000Y-99832867I-820000J-417133D01*
G01*
%TO.C,R2*%
X129450000Y-51600000D02*
X135450000Y-51600000D01*
X129450000Y-60400000D02*
X135450000Y-60400000D01*
X129450000Y-60400000D02*
G75*
G02*
X129417350Y-51622440I3000000J4400000D01*
G01*
X135450000Y-51600000D02*
G75*
G02*
X135482650Y-60377560I-3000000J-4400000D01*
G01*
%TO.C,R1*%
X142570000Y-65332867D02*
G75*
G02*
X140930000Y-65332867I-820000J-417133D01*
G01*
%TO.C,J8*%
X147330000Y-55630000D02*
X147330000Y-54250000D01*
X148710000Y-55630000D02*
X147330000Y-55630000D01*
X149980000Y-55630000D02*
X155170000Y-55630000D01*
X149980000Y-55630000D02*
X149980000Y-52870000D01*
X155170000Y-55630000D02*
X155170000Y-52870000D01*
X149980000Y-52870000D02*
X155170000Y-52870000D01*
%TO.C,J7*%
X160680000Y-117160000D02*
X160680000Y-106760000D01*
X163700000Y-117160000D02*
X163700000Y-106760000D01*
X168600000Y-117160000D02*
X168600000Y-106760000D01*
X170100000Y-117160000D02*
X170100000Y-106760000D01*
X170720000Y-117160000D02*
X160680000Y-117160000D01*
X170720000Y-114800000D02*
X170720000Y-117160000D01*
X160680000Y-106760000D02*
X170720000Y-106760000D01*
X170720000Y-106760000D02*
X170720000Y-114200000D01*
X171330000Y-114940000D02*
X170720000Y-114500000D01*
X171330000Y-114060000D01*
X171330000Y-114940000D01*
G36*
X171330000Y-114940000D02*
G01*
X170720000Y-114500000D01*
X171330000Y-114060000D01*
X171330000Y-114940000D01*
G37*
%TO.C,J6*%
X161680000Y-63410000D02*
X161680000Y-53010000D01*
X164700000Y-63410000D02*
X164700000Y-53010000D01*
X169600000Y-63410000D02*
X169600000Y-53010000D01*
X171100000Y-63410000D02*
X171100000Y-53010000D01*
X171720000Y-63410000D02*
X161680000Y-63410000D01*
X171720000Y-61050000D02*
X171720000Y-63410000D01*
X161680000Y-53010000D02*
X171720000Y-53010000D01*
X171720000Y-53010000D02*
X171720000Y-60450000D01*
X172330000Y-61190000D02*
X171720000Y-60750000D01*
X172330000Y-60310000D01*
X172330000Y-61190000D01*
G36*
X172330000Y-61190000D02*
G01*
X171720000Y-60750000D01*
X172330000Y-60310000D01*
X172330000Y-61190000D01*
G37*
%TO.C,J4*%
X162940000Y-81440000D02*
X162940000Y-80170000D01*
X164210000Y-81440000D02*
X162940000Y-81440000D01*
X166320000Y-79092642D02*
X166320000Y-78780000D01*
X167180000Y-79092642D02*
X167180000Y-78780000D01*
X168860000Y-79092642D02*
X168860000Y-78780000D01*
X169720000Y-79092642D02*
X169720000Y-78780000D01*
X163780000Y-79010000D02*
X163780000Y-78780000D01*
X164640000Y-79010000D02*
X164640000Y-78780000D01*
X162830000Y-78780000D02*
X170670000Y-78780000D01*
X165480000Y-78780000D02*
X165480000Y-76020000D01*
X168020000Y-78780000D02*
X168020000Y-76020000D01*
X170670000Y-78780000D02*
X170670000Y-76020000D01*
X162830000Y-76020000D02*
X162830000Y-78780000D01*
X166320000Y-76020000D02*
X166320000Y-70020000D01*
X168860000Y-76020000D02*
X168860000Y-70020000D01*
X170670000Y-76020000D02*
X162830000Y-76020000D01*
X166320000Y-70020000D02*
X167180000Y-70020000D01*
X167180000Y-70020000D02*
X167180000Y-76020000D01*
X168860000Y-70020000D02*
X169720000Y-70020000D01*
X169720000Y-70020000D02*
X169720000Y-76020000D01*
X163780000Y-76020000D02*
X164640000Y-76020000D01*
X164640000Y-70020000D01*
X163780000Y-70020000D01*
X163780000Y-76020000D01*
G36*
X163780000Y-76020000D02*
G01*
X164640000Y-76020000D01*
X164640000Y-70020000D01*
X163780000Y-70020000D01*
X163780000Y-76020000D01*
G37*
%TO.C,J3*%
X112350000Y-52400000D02*
X112350000Y-58150000D01*
X106350000Y-52400000D02*
X112350000Y-52400000D01*
X107460000Y-53750000D02*
X107460000Y-58830000D01*
X106450000Y-53750000D02*
X107460000Y-53750000D01*
X107460000Y-58830000D02*
X106450000Y-58830000D01*
X112300000Y-59500000D02*
X112300000Y-62700000D01*
X112300000Y-62700000D02*
X106350000Y-62700000D01*
X106350000Y-62700000D02*
X106350000Y-52400000D01*
%TO.C,J2*%
X131920000Y-73740000D02*
X131920000Y-119520000D01*
X131920000Y-73740000D02*
X134580000Y-73740000D01*
X131920000Y-119520000D02*
X134580000Y-119520000D01*
X133250000Y-71140000D02*
X134580000Y-71140000D01*
X134580000Y-71140000D02*
X134580000Y-72470000D01*
X134580000Y-73740000D02*
X134580000Y-119520000D01*
%TO.C,J1*%
X103420000Y-73910000D02*
X103420000Y-119690000D01*
X103420000Y-73910000D02*
X106080000Y-73910000D01*
X103420000Y-119690000D02*
X106080000Y-119690000D01*
X104750000Y-71310000D02*
X106080000Y-71310000D01*
X106080000Y-71310000D02*
X106080000Y-72640000D01*
X106080000Y-73910000D02*
X106080000Y-119690000D01*
%TD*%
M02*
