%TF.GenerationSoftware,KiCad,Pcbnew,9.0.6*%
%TF.CreationDate,2026-05-09T11:49:49+05:00*%
%TF.ProjectId,AI_Project_PCB,41495f50-726f-46a6-9563-745f5043422e,rev?*%
%TF.SameCoordinates,Original*%
%TF.FileFunction,Legend,Bot*%
%TF.FilePolarity,Positive*%
%FSLAX46Y46*%
G04 Gerber Fmt 4.6, Leading zero omitted, Abs format (unit mm)*
G04 Created by KiCad (PCBNEW 9.0.6) date 2026-05-09 11:49:49*
%MOMM*%
%LPD*%
G01*
G04 APERTURE LIST*
%ADD10C,0.150000*%
%ADD11C,0.120000*%
G04 APERTURE END LIST*
D10*
X141555238Y-88740057D02*
X141650476Y-88692438D01*
X141650476Y-88692438D02*
X141745714Y-88597200D01*
X141745714Y-88597200D02*
X141888571Y-88454342D01*
X141888571Y-88454342D02*
X141983809Y-88406723D01*
X141983809Y-88406723D02*
X142079047Y-88406723D01*
X142031428Y-88644819D02*
X142126666Y-88597200D01*
X142126666Y-88597200D02*
X142221904Y-88501961D01*
X142221904Y-88501961D02*
X142269523Y-88311485D01*
X142269523Y-88311485D02*
X142269523Y-87978152D01*
X142269523Y-87978152D02*
X142221904Y-87787676D01*
X142221904Y-87787676D02*
X142126666Y-87692438D01*
X142126666Y-87692438D02*
X142031428Y-87644819D01*
X142031428Y-87644819D02*
X141840952Y-87644819D01*
X141840952Y-87644819D02*
X141745714Y-87692438D01*
X141745714Y-87692438D02*
X141650476Y-87787676D01*
X141650476Y-87787676D02*
X141602857Y-87978152D01*
X141602857Y-87978152D02*
X141602857Y-88311485D01*
X141602857Y-88311485D02*
X141650476Y-88501961D01*
X141650476Y-88501961D02*
X141745714Y-88597200D01*
X141745714Y-88597200D02*
X141840952Y-88644819D01*
X141840952Y-88644819D02*
X142031428Y-88644819D01*
X140650476Y-88644819D02*
X141221904Y-88644819D01*
X140936190Y-88644819D02*
X140936190Y-87644819D01*
X140936190Y-87644819D02*
X141031428Y-87787676D01*
X141031428Y-87787676D02*
X141126666Y-87882914D01*
X141126666Y-87882914D02*
X141221904Y-87930533D01*
X166923333Y-98644819D02*
X166923333Y-99359104D01*
X166923333Y-99359104D02*
X166970952Y-99501961D01*
X166970952Y-99501961D02*
X167066190Y-99597200D01*
X167066190Y-99597200D02*
X167209047Y-99644819D01*
X167209047Y-99644819D02*
X167304285Y-99644819D01*
X165970952Y-98644819D02*
X166447142Y-98644819D01*
X166447142Y-98644819D02*
X166494761Y-99121009D01*
X166494761Y-99121009D02*
X166447142Y-99073390D01*
X166447142Y-99073390D02*
X166351904Y-99025771D01*
X166351904Y-99025771D02*
X166113809Y-99025771D01*
X166113809Y-99025771D02*
X166018571Y-99073390D01*
X166018571Y-99073390D02*
X165970952Y-99121009D01*
X165970952Y-99121009D02*
X165923333Y-99216247D01*
X165923333Y-99216247D02*
X165923333Y-99454342D01*
X165923333Y-99454342D02*
X165970952Y-99549580D01*
X165970952Y-99549580D02*
X166018571Y-99597200D01*
X166018571Y-99597200D02*
X166113809Y-99644819D01*
X166113809Y-99644819D02*
X166351904Y-99644819D01*
X166351904Y-99644819D02*
X166447142Y-99597200D01*
X166447142Y-99597200D02*
X166494761Y-99549580D01*
D11*
%TO.C,Q1*%
X143260000Y-93600000D02*
X139660000Y-93600000D01*
X141460000Y-89150000D02*
G75*
G02*
X143816400Y-90651193I0J-2600000D01*
G01*
X143784184Y-92872795D02*
G75*
G02*
X143260000Y-93600000I-2324184J1122795D01*
G01*
X139103600Y-90651193D02*
G75*
G02*
X141460000Y-89150000I2356400J-1098807D01*
G01*
X139660000Y-93600000D02*
G75*
G02*
X139135816Y-92872795I1800000J1850000D01*
G01*
%TO.C,J5*%
X161090000Y-98190000D02*
X172090000Y-98190000D01*
X161090000Y-96570000D02*
X172090000Y-96570000D01*
X161090000Y-88820000D02*
X172090000Y-88820000D01*
X161090000Y-87700000D02*
X161090000Y-98190000D01*
X163450000Y-87700000D02*
X161090000Y-87700000D01*
X172090000Y-98190000D02*
X172090000Y-87700000D01*
X172090000Y-87700000D02*
X164050000Y-87700000D01*
X163750000Y-87700000D02*
X163310000Y-87090000D01*
X164190000Y-87090000D01*
X163750000Y-87700000D01*
G36*
X163750000Y-87700000D02*
G01*
X163310000Y-87090000D01*
X164190000Y-87090000D01*
X163750000Y-87700000D01*
G37*
%TD*%
M02*
