M48
; DRILL file {KiCad 9.0.6} date 2026-05-09T11:50:28+0500
; FORMAT={-:-/ absolute / metric / decimal}
; #@! TF.CreationDate,2026-05-09T11:50:28+05:00
; #@! TF.GenerationSoftware,Kicad,Pcbnew,9.0.6
; #@! TF.FileFunction,Plated,1,2,PTH
FMAT,2
METRIC
; #@! TA.AperFunction,Plated,PTH,ViaDrill
T1C0.300
; #@! TA.AperFunction,Plated,PTH,ComponentDrill
T2C0.700
; #@! TA.AperFunction,Plated,PTH,ComponentDrill
T3C0.800
; #@! TA.AperFunction,Plated,PTH,ComponentDrill
T4C1.000
; #@! TA.AperFunction,Plated,PTH,ComponentDrill
T5C1.020
; #@! TA.AperFunction,Plated,PTH,ComponentDrill
T6C1.300
; #@! TA.AperFunction,Plated,PTH,ComponentDrill
T7C1.600
%
G90
G05
T1
X157.25Y-85.75
T2
X141.75Y-63.85
X141.75Y-65.75
X143.25Y-98.35
X143.25Y-100.25
T3
X128.65Y-56.0
X136.25Y-56.0
X138.92Y-91.75
X141.46Y-91.75
X144.0Y-91.75
T4
X104.75Y-72.64
X104.75Y-75.18
X104.75Y-77.72
X104.75Y-80.26
X104.75Y-82.8
X104.75Y-85.34
X104.75Y-87.88
X104.75Y-90.42
X104.75Y-92.96
X104.75Y-95.5
X104.75Y-98.04
X104.75Y-100.58
X104.75Y-103.12
X104.75Y-105.66
X104.75Y-108.2
X104.75Y-110.74
X104.75Y-113.28
X104.75Y-115.82
X104.75Y-118.36
X133.25Y-72.47
X133.25Y-75.01
X133.25Y-77.55
X133.25Y-80.09
X133.25Y-82.63
X133.25Y-85.17
X133.25Y-87.71
X133.25Y-90.25
X133.25Y-92.79
X133.25Y-95.33
X133.25Y-97.87
X133.25Y-100.41
X133.25Y-102.95
X133.25Y-105.49
X133.25Y-108.03
X133.25Y-110.57
X133.25Y-113.11
X133.25Y-115.65
X133.25Y-118.19
X148.71Y-54.25
X151.25Y-54.25
X153.79Y-54.25
X164.21Y-80.17
X166.75Y-80.17
X169.29Y-80.17
T5
X109.75Y-53.75
X109.75Y-56.29
X109.75Y-58.83
X109.75Y-61.37
T6
X166.0Y-109.42
X166.0Y-114.5
X167.0Y-55.67
X167.0Y-60.75
T7
X163.75Y-93.17
X168.83Y-93.17
M30
